<svg id="logo" xmlns="http://www.w3.org/2000/svg" width="115" height="24" viewBox="0 0 115 24">
  <metadata><?xpacket begin="﻿" id="W5M0MpCehiHzreSzNTczkc9d"?>
<x:xmpmeta xmlns:x="adobe:ns:meta/" x:xmptk="Adobe XMP Core 5.6-c140 79.160451, 2017/05/06-01:08:21        ">
   <rdf:RDF xmlns:rdf="http://www.w3.org/1999/02/22-rdf-syntax-ns#">
      <rdf:Description rdf:about=""/>
   </rdf:RDF>
</x:xmpmeta>
                                                                                                    
                                                                                                    
                                                                                                    
                                                                                                    
                                                                                                    
                                                                                                    
                                                                                                    
                                                                                                    
                                                                                                    
                                                                                                    
                                                                                                    
                                                                                                    
                                                                                                    
                                                                                                    
                                                                                                    
                                                                                                    
                                                                                                    
                                                                                                    
                                                                                                    
                                                                                                    
                           
<?xpacket end="w"?></metadata>
<defs>
    <style>
      .cls-1 {
        fill: #fff;
      }

      .cls-1, .cls-2 {
        fill-rule: evenodd;
      }

      .cls-2 {
        fill: #30d2b9;
      }
    </style>
  </defs>
  <path id="Forma_1" data-name="Forma 1" class="cls-1" d="M14.508,23.837a1.221,1.221,0,0,1-1.327-.9l-1.8-8.478L10.2,16.472a1.4,1.4,0,0,1-1.165.7H2.488a1.334,1.334,0,1,1,0-2.668H8.26l2.574-4.285a1.36,1.36,0,0,1,2.491.407L14.413,15.8,16.895,2.239a1.331,1.331,0,0,1,1.334-1.077h0.006a1.327,1.327,0,0,1,1.329,1.087l2.649,15.226,0.852-2.127a1.355,1.355,0,0,1,1.259-.85H36.338a1.334,1.334,0,1,1,0,2.668h-11.1l-2.292,5.706a1.359,1.359,0,0,1-2.593-.265L18.2,10.167,15.84,22.9a1.21,1.21,0,0,1-1.315.935H14.508Z"/>
  <path id="N" class="cls-2" d="M57,6.108H53.261v7.6l-4.94-7.6H44.578V19.541h3.743V12.036l4.94,7.505H57V6.108Z"/>
  <path id="ordis" class="cls-1" d="M64.884,8.638a6.174,6.174,0,0,0-2.869.656,4.823,4.823,0,0,0-1.995,1.891,5.656,5.656,0,0,0-.722,2.907A5.654,5.654,0,0,0,60.02,17a4.883,4.883,0,0,0,1.995,1.9,6.5,6.5,0,0,0,5.729,0A4.9,4.9,0,0,0,69.729,17a5.657,5.657,0,0,0,.722-2.907,5.672,5.672,0,0,0-.722-2.9,4.823,4.823,0,0,0-1.986-1.9,6.118,6.118,0,0,0-2.859-.655h0Zm0,3.23a1.644,1.644,0,0,1,1.273.57,2.393,2.393,0,0,1,.513,1.653,2.43,2.43,0,0,1-.513,1.662,1.632,1.632,0,0,1-1.273.579,1.664,1.664,0,0,1-1.292-.57,2.423,2.423,0,0,1-.513-1.672,2.393,2.393,0,0,1,.513-1.653,1.664,1.664,0,0,1,1.292-.57h0Zm10.811-1.1v-2H71.952V19.43h3.743v-4.6a2,2,0,0,1,.627-1.681,3.049,3.049,0,0,1,1.881-.485h1.083V8.676a3.851,3.851,0,0,0-2.014.57,4.88,4.88,0,0,0-1.577,1.52h0Zm8.778-2.128a4.18,4.18,0,0,0-2.3.656,4.445,4.445,0,0,0-1.615,1.891,6.689,6.689,0,0,0-.589,2.907,6.75,6.75,0,0,0,.589,2.917,4.434,4.434,0,0,0,1.615,1.9,4.18,4.18,0,0,0,2.3.656,3.731,3.731,0,0,0,1.938-.485,3,3,0,0,0,1.216-1.339V19.43H91.37V5.37H87.627v5.092a3,3,0,0,0-1.216-1.34,3.731,3.731,0,0,0-1.938-.485h0Zm1.235,3.268a1.82,1.82,0,0,1,1.387.589,2.244,2.244,0,0,1,.551,1.6,2.271,2.271,0,0,1-.551,1.615,1.819,1.819,0,0,1-1.387.589,1.847,1.847,0,0,1-1.416-.579,2.288,2.288,0,0,1-.541-1.624,2.26,2.26,0,0,1,.541-1.605,1.848,1.848,0,0,1,1.416-.58h0Zm7.41-6.08a1.694,1.694,0,0,0,.608,1.33,2.335,2.335,0,0,0,1.6.532,2.271,2.271,0,0,0,1.567-.532,1.705,1.705,0,0,0,.6-1.33A1.79,1.79,0,0,0,96.9,4.448a2.24,2.24,0,0,0-1.577-.542,2.31,2.31,0,0,0-1.6.542,1.763,1.763,0,0,0-.608,1.377h0Zm0.3,2.945V19.43h3.743V8.771H93.422Zm9.861-.133a4.942,4.942,0,0,0-3.192.912,2.9,2.9,0,0,0-1.121,2.356,2.644,2.644,0,0,0,.58,1.815,3.4,3.4,0,0,0,1.358.95,13.222,13.222,0,0,0,2,.542,8.294,8.294,0,0,1,1.549.418,0.7,0.7,0,0,1,.484.665,0.612,0.612,0,0,1-.228.494,1.013,1.013,0,0,1-.665.19,1.9,1.9,0,0,1-1.073-.285,1.171,1.171,0,0,1-.5-0.874H98.875a4.054,4.054,0,0,0,1.615,2.774,6.935,6.935,0,0,0,5.881.561,3.355,3.355,0,0,0,1.491-1.13,2.782,2.782,0,0,0,.513-1.653,2.7,2.7,0,0,0-.6-1.843,3.482,3.482,0,0,0-1.406-.988,14.782,14.782,0,0,0-2.043-.57,10.027,10.027,0,0,1-1.529-.447,0.644,0.644,0,0,1-.466-0.6,0.617,0.617,0,0,1,.219-0.5,0.977,0.977,0,0,1,.636-0.181,1.7,1.7,0,0,1,1,.285,1.373,1.373,0,0,1,.541.855h3.5a4.472,4.472,0,0,0-1.577-2.717,5.15,5.15,0,0,0-3.363-1.026h0Z"/>
</svg>
